<svg width="26" height="26" viewBox="0 0 26 26" fill="none" xmlns="http://www.w3.org/2000/svg">
<path d="M13.0216 3.15253C9.43581 3.15253 6.52164 6.0667 6.52164 9.65253V12.7834C6.52164 13.4442 6.23997 14.4517 5.90414 15.015L4.65831 17.0842C3.88914 18.3625 4.41997 19.7817 5.82831 20.2584C10.4975 21.8184 15.535 21.8184 20.2041 20.2584C21.515 19.825 22.0891 18.2759 21.3741 17.0842L20.1283 15.015C19.8033 14.4517 19.5216 13.4442 19.5216 12.7834V9.65253C19.5216 6.07753 16.5966 3.15253 13.0216 3.15253Z" stroke="#9B9B9B" stroke-width="1.625" stroke-miterlimit="10" stroke-linecap="round"/>
<path d="M15.0259 3.4666C14.6901 3.3691 14.3434 3.29327 13.9859 3.24993C12.9459 3.11993 11.9492 3.19577 11.0176 3.4666C11.3317 2.66493 12.1117 2.1016 13.0217 2.1016C13.9317 2.1016 14.7117 2.66493 15.0259 3.4666Z" stroke="#9B9B9B" stroke-width="1.625" stroke-miterlimit="10" stroke-linecap="round" stroke-linejoin="round"/>
<path d="M16.2717 20.6484C16.2717 22.4359 14.8092 23.8984 13.0217 23.8984C12.1334 23.8984 11.3101 23.5301 10.7251 22.9451C10.1401 22.3601 9.77173 21.5367 9.77173 20.6484" stroke="#9B9B9B" stroke-width="1.625" stroke-miterlimit="10"/>
</svg>
