<svg width="28" height="28" viewBox="0 0 28 28" fill="none" xmlns="http://www.w3.org/2000/svg">
<g id="vuesax/linear/shopping-cart">
<g id="shopping-cart">
<path id="Vector" d="M2.3335 2.33334H4.3635C5.6235 2.33334 6.61516 3.41834 6.51016 4.66668L5.54183 16.2867C5.3785 18.1883 6.88349 19.8217 8.79682 19.8217H21.2218C22.9018 19.8217 24.3718 18.445 24.5002 16.7767L25.1302 8.02668C25.2702 6.09002 23.8002 4.515 21.8518 4.515H6.79017" stroke="white" stroke-width="1.82033" stroke-miterlimit="10" stroke-linecap="round" stroke-linejoin="round"/>
<path id="Vector_2" d="M18.9583 25.6667C19.7637 25.6667 20.4167 25.0137 20.4167 24.2083C20.4167 23.4029 19.7637 22.75 18.9583 22.75C18.1529 22.75 17.5 23.4029 17.5 24.2083C17.5 25.0137 18.1529 25.6667 18.9583 25.6667Z" stroke="white" stroke-width="1.82033" stroke-miterlimit="10" stroke-linecap="round" stroke-linejoin="round"/>
<path id="Vector_3" d="M9.62484 25.6667C10.4303 25.6667 11.0832 25.0137 11.0832 24.2083C11.0832 23.4029 10.4303 22.75 9.62484 22.75C8.81942 22.75 8.1665 23.4029 8.1665 24.2083C8.1665 25.0137 8.81942 25.6667 9.62484 25.6667Z" stroke="white" stroke-width="1.82033" stroke-miterlimit="10" stroke-linecap="round" stroke-linejoin="round"/>
<path id="Vector_4" d="M10.5 9.33331H24.5" stroke="white" stroke-width="1.82033" stroke-miterlimit="10" stroke-linecap="round" stroke-linejoin="round"/>
</g>
</g>
</svg>
